<svg width="41" height="39" viewBox="0 0 41 39" fill="none" xmlns="http://www.w3.org/2000/svg">
<path d="M10.7319 35.1528C11.23 35.1528 11.5815 35.27 11.7866 35.5044C12.0063 35.7534 12.1162 36.1636 12.1162 36.7349C12.1162 37.3062 12.0063 37.709 11.7866 37.9434C11.5815 38.1924 11.23 38.3169 10.7319 38.3169H1.63525C1.13721 38.3169 0.77832 38.1997 0.558594 37.9653C0.353516 37.7456 0.250977 37.3647 0.250977 36.8228V2.34766C0.250977 1.80566 0.353516 1.4248 0.558594 1.20508C0.77832 0.970703 1.13721 0.853516 1.63525 0.853516H10.7319C11.23 0.853516 11.5815 0.978027 11.7866 1.22705C12.0063 1.46143 12.1162 1.86426 12.1162 2.43555C12.1162 3.00684 12.0063 3.41699 11.7866 3.66602C11.5815 3.90039 11.23 4.01758 10.7319 4.01758H3.54688V35.1528H10.7319ZM30.0239 0.787598C31.7964 1.85693 33.4736 3.29248 35.0557 5.09424C36.6377 6.88135 37.9268 9.02002 38.9229 11.5103C39.9336 14.0005 40.439 16.7104 40.439 19.6401C40.439 22.5698 39.9336 25.2725 38.9229 27.748C37.9268 30.2236 36.6377 32.3477 35.0557 34.1201C33.4883 35.9072 31.811 37.3354 30.0239 38.4048C29.8628 38.4927 29.709 38.5366 29.5625 38.5366C29.3281 38.5366 29.1011 38.4561 28.8813 38.2949C28.6763 38.1338 28.4932 37.9214 28.332 37.6577C28.083 37.2329 27.9585 36.8374 27.9585 36.4712C27.9585 36.1782 28.0537 35.9658 28.2441 35.834C30.793 34.1641 32.917 31.9814 34.6162 29.2861C36.3301 26.5908 37.187 23.3755 37.187 19.6401C37.187 15.9048 36.3301 12.6748 34.6162 9.9502C32.9023 7.22559 30.7783 5.02832 28.2441 3.3584C28.0537 3.22656 27.9585 3.01416 27.9585 2.72119C27.9585 2.35498 28.083 1.95947 28.332 1.53467C28.4932 1.271 28.6763 1.05859 28.8813 0.897461C29.1011 0.736328 29.3281 0.655762 29.5625 0.655762C29.709 0.655762 29.8628 0.699707 30.0239 0.787598Z" fill="#50FA7B"/>
</svg>
